<svg width="50" height="40" viewBox="0 0 50 40" fill="none" xmlns="http://www.w3.org/2000/svg">
<path d="M40.625 20C40.625 21.38 39.225 22.5 37.5 22.5H12.5C10.775 22.5 9.375 21.38 9.375 20C9.375 18.62 10.775 17.5 12.5 17.5H37.5C39.225 17.5 40.625 18.62 40.625 20Z" fill="#FCCB06"/>
<path d="M40.625 10C40.625 11.38 39.225 12.5 37.5 12.5H12.5C10.775 12.5 9.375 11.38 9.375 10C9.375 8.62 10.775 7.5 12.5 7.5H37.5C39.225 7.5 40.625 8.62 40.625 10Z" fill="#FCCB06"/>
<path d="M40.625 30C40.625 31.38 39.225 32.5 37.5 32.5H12.5C10.775 32.5 9.375 31.38 9.375 30C9.375 28.62 10.775 27.5 12.5 27.5H37.5C39.225 27.5 40.625 28.62 40.625 30Z" fill="#FCCB06"/>
</svg>
